<svg width="90" height="90" viewBox="0 0 90 90" fill="none" xmlns="http://www.w3.org/2000/svg">
<circle cx="45" cy="45" r="45" fill="#E8E5CC"/>
<path d="M44.5766 58.1549L38.4785 52.0568L39.5611 50.9742L44.5766 55.9894L49.5918 50.9742L50.6744 52.0568L44.5766 58.1549Z" fill="#020887"/>
<path d="M44.5762 51.6442C35.8516 51.6442 28.7539 44.5465 28.7539 35.8221C28.7539 27.0977 35.8516 20 44.5762 20C53.3007 20 60.3981 27.0977 60.3981 35.8221C60.3981 44.5465 53.3004 51.6442 44.5762 51.6442ZM44.5762 21.5312C36.6961 21.5312 30.2851 27.942 30.2851 35.8221C30.2851 43.7022 36.6961 50.113 44.5762 50.113C52.4563 50.113 58.8669 43.7022 58.8669 35.8221C58.8669 27.942 52.4563 21.5312 44.5762 21.5312Z" fill="#020887"/>
<path d="M66.1518 70H23L23.1028 69.1434C24.4018 58.2943 33.6333 50.113 44.5761 50.113C55.5189 50.113 64.75 58.2943 66.049 69.1434L66.1518 70ZM24.7442 68.4689H64.4076C62.8315 58.8176 54.4543 51.6442 44.5761 51.6442C34.6979 51.6442 26.3203 58.8176 24.7442 68.4689Z" fill="#020887"/>
<path d="M44.5759 45.35C42.1352 45.35 39.6942 44.4207 37.8359 42.5624L38.9185 41.4799C42.0392 44.5998 47.1145 44.5992 50.2337 41.4799L51.3162 42.5624C49.458 44.4207 47.0169 45.35 44.5759 45.35Z" fill="#020887"/>
</svg>
